<mxfile host="65bd71144e">
    <diagram id="FYhK5XwXPU6vqT4tIKtW" name="Circuit">
        <mxGraphModel dx="774" dy="705" grid="1" gridSize="10" guides="1" tooltips="1" connect="1" arrows="1" fold="1" page="1" pageScale="1" pageWidth="1169" pageHeight="827" math="0" shadow="0">
            <root>
                <mxCell id="Wk73bpi1QF1DkkTy3EzX-0"/>
                <mxCell id="Wk73bpi1QF1DkkTy3EzX-1" parent="Wk73bpi1QF1DkkTy3EzX-0"/>
                <mxCell id="ErJWRahHPDitt9mFPtBU-3" style="edgeStyle=orthogonalEdgeStyle;rounded=0;html=1;exitX=0;exitY=0;exitDx=0;exitDy=170;exitPerimeter=0;entryX=0;entryY=0;entryDx=0;entryDy=10;entryPerimeter=0;endArrow=none;endFill=0;strokeColor=#161032;strokeWidth=3;" parent="Wk73bpi1QF1DkkTy3EzX-1" source="kcwzbJU05wZz-cIJv0j--0" target="kcwzbJU05wZz-cIJv0j--2" edge="1">
                    <mxGeometry relative="1" as="geometry"/>
                </mxCell>
                <mxCell id="ErJWRahHPDitt9mFPtBU-4" style="edgeStyle=orthogonalEdgeStyle;rounded=0;html=1;exitX=0;exitY=0;exitDx=0;exitDy=190;exitPerimeter=0;entryX=0;entryY=0;entryDx=0;entryDy=30;entryPerimeter=0;endArrow=none;endFill=0;strokeColor=#FCFF4B;strokeWidth=3;" parent="Wk73bpi1QF1DkkTy3EzX-1" source="kcwzbJU05wZz-cIJv0j--0" target="kcwzbJU05wZz-cIJv0j--2" edge="1">
                    <mxGeometry relative="1" as="geometry">
                        <Array as="points">
                            <mxPoint x="740" y="430"/>
                            <mxPoint x="740" y="60"/>
                        </Array>
                    </mxGeometry>
                </mxCell>
                <mxCell id="ErJWRahHPDitt9mFPtBU-5" style="edgeStyle=orthogonalEdgeStyle;rounded=0;html=1;exitX=0;exitY=0;exitDx=0;exitDy=210;exitPerimeter=0;entryX=0;entryY=0;entryDx=0;entryDy=50;entryPerimeter=0;endArrow=none;endFill=0;strokeColor=#ffc53a;strokeWidth=3;" parent="Wk73bpi1QF1DkkTy3EzX-1" source="kcwzbJU05wZz-cIJv0j--0" target="kcwzbJU05wZz-cIJv0j--2" edge="1">
                    <mxGeometry relative="1" as="geometry">
                        <Array as="points">
                            <mxPoint x="720" y="450"/>
                            <mxPoint x="720" y="80"/>
                        </Array>
                    </mxGeometry>
                </mxCell>
                <mxCell id="ErJWRahHPDitt9mFPtBU-6" style="edgeStyle=orthogonalEdgeStyle;rounded=0;html=1;exitX=0;exitY=0;exitDx=0;exitDy=230;exitPerimeter=0;entryX=0;entryY=0;entryDx=0;entryDy=70;entryPerimeter=0;endArrow=none;endFill=0;strokeColor=#e06d06;strokeWidth=3;" parent="Wk73bpi1QF1DkkTy3EzX-1" source="kcwzbJU05wZz-cIJv0j--0" target="kcwzbJU05wZz-cIJv0j--2" edge="1">
                    <mxGeometry relative="1" as="geometry">
                        <Array as="points">
                            <mxPoint x="700" y="470"/>
                            <mxPoint x="700" y="100"/>
                        </Array>
                    </mxGeometry>
                </mxCell>
                <mxCell id="ErJWRahHPDitt9mFPtBU-7" style="edgeStyle=orthogonalEdgeStyle;rounded=0;html=1;exitX=0;exitY=0;exitDx=0;exitDy=250;exitPerimeter=0;entryX=0;entryY=0;entryDx=0;entryDy=90;entryPerimeter=0;endArrow=none;endFill=0;strokeColor=#b26700;strokeWidth=3;" parent="Wk73bpi1QF1DkkTy3EzX-1" source="kcwzbJU05wZz-cIJv0j--0" target="kcwzbJU05wZz-cIJv0j--2" edge="1">
                    <mxGeometry relative="1" as="geometry">
                        <Array as="points">
                            <mxPoint x="680" y="490"/>
                            <mxPoint x="680" y="120"/>
                        </Array>
                    </mxGeometry>
                </mxCell>
                <mxCell id="ErJWRahHPDitt9mFPtBU-8" style="edgeStyle=orthogonalEdgeStyle;rounded=0;html=1;exitX=0;exitY=0;exitDx=0;exitDy=270;exitPerimeter=0;entryX=0;entryY=0;entryDx=0;entryDy=110;entryPerimeter=0;endArrow=none;endFill=0;strokeColor=#7CAFC4;strokeWidth=3;" parent="Wk73bpi1QF1DkkTy3EzX-1" source="kcwzbJU05wZz-cIJv0j--0" target="kcwzbJU05wZz-cIJv0j--2" edge="1">
                    <mxGeometry relative="1" as="geometry">
                        <Array as="points">
                            <mxPoint x="660" y="510"/>
                            <mxPoint x="660" y="140"/>
                        </Array>
                    </mxGeometry>
                </mxCell>
                <mxCell id="ErJWRahHPDitt9mFPtBU-9" style="edgeStyle=orthogonalEdgeStyle;rounded=0;html=1;exitX=1;exitY=0;exitDx=0;exitDy=170;exitPerimeter=0;entryX=1;entryY=0;entryDx=0;entryDy=10;entryPerimeter=0;endArrow=none;endFill=0;strokeColor=#8b94a3;strokeWidth=3;" parent="Wk73bpi1QF1DkkTy3EzX-1" source="kcwzbJU05wZz-cIJv0j--0" target="kcwzbJU05wZz-cIJv0j--2" edge="1">
                    <mxGeometry relative="1" as="geometry">
                        <Array as="points">
                            <mxPoint x="950" y="410"/>
                            <mxPoint x="950" y="40"/>
                        </Array>
                    </mxGeometry>
                </mxCell>
                <mxCell id="ErJWRahHPDitt9mFPtBU-10" style="edgeStyle=orthogonalEdgeStyle;rounded=0;html=1;exitX=1;exitY=0;exitDx=0;exitDy=190;exitPerimeter=0;entryX=1;entryY=0;entryDx=0;entryDy=30;entryPerimeter=0;endArrow=none;endFill=0;strokeColor=#222e50;strokeWidth=3;" parent="Wk73bpi1QF1DkkTy3EzX-1" source="kcwzbJU05wZz-cIJv0j--0" target="kcwzbJU05wZz-cIJv0j--2" edge="1">
                    <mxGeometry relative="1" as="geometry">
                        <Array as="points">
                            <mxPoint x="970" y="430"/>
                            <mxPoint x="970" y="60"/>
                        </Array>
                    </mxGeometry>
                </mxCell>
                <mxCell id="ErJWRahHPDitt9mFPtBU-11" style="edgeStyle=orthogonalEdgeStyle;rounded=0;html=1;exitX=1;exitY=0;exitDx=0;exitDy=210;exitPerimeter=0;entryX=1;entryY=0;entryDx=0;entryDy=50;entryPerimeter=0;endArrow=none;endFill=0;strokeColor=#0fff95;strokeWidth=3;" parent="Wk73bpi1QF1DkkTy3EzX-1" source="kcwzbJU05wZz-cIJv0j--0" target="kcwzbJU05wZz-cIJv0j--2" edge="1">
                    <mxGeometry relative="1" as="geometry">
                        <Array as="points">
                            <mxPoint x="990" y="450"/>
                            <mxPoint x="990" y="80"/>
                        </Array>
                    </mxGeometry>
                </mxCell>
                <mxCell id="ErJWRahHPDitt9mFPtBU-12" style="edgeStyle=orthogonalEdgeStyle;rounded=0;html=1;exitX=1;exitY=0;exitDx=0;exitDy=230;exitPerimeter=0;entryX=1;entryY=0;entryDx=0;entryDy=70;entryPerimeter=0;endArrow=none;endFill=0;strokeColor=#06ba63;strokeWidth=3;" parent="Wk73bpi1QF1DkkTy3EzX-1" source="kcwzbJU05wZz-cIJv0j--0" target="kcwzbJU05wZz-cIJv0j--2" edge="1">
                    <mxGeometry relative="1" as="geometry">
                        <Array as="points">
                            <mxPoint x="1010" y="470"/>
                            <mxPoint x="1010" y="100"/>
                        </Array>
                    </mxGeometry>
                </mxCell>
                <mxCell id="ErJWRahHPDitt9mFPtBU-13" style="edgeStyle=orthogonalEdgeStyle;rounded=0;html=1;exitX=1;exitY=0;exitDx=0;exitDy=250;exitPerimeter=0;entryX=1;entryY=0;entryDx=0;entryDy=90;entryPerimeter=0;endArrow=none;endFill=0;strokeColor=#103900;strokeWidth=3;" parent="Wk73bpi1QF1DkkTy3EzX-1" source="kcwzbJU05wZz-cIJv0j--0" target="kcwzbJU05wZz-cIJv0j--2" edge="1">
                    <mxGeometry relative="1" as="geometry">
                        <Array as="points">
                            <mxPoint x="1030" y="490"/>
                            <mxPoint x="1030" y="120"/>
                        </Array>
                    </mxGeometry>
                </mxCell>
                <mxCell id="ErJWRahHPDitt9mFPtBU-14" style="edgeStyle=orthogonalEdgeStyle;rounded=0;html=1;exitX=1;exitY=0;exitDx=0;exitDy=270;exitPerimeter=0;entryX=1;entryY=0;entryDx=0;entryDy=110;entryPerimeter=0;endArrow=none;endFill=0;strokeColor=#db3069;strokeWidth=3;" parent="Wk73bpi1QF1DkkTy3EzX-1" source="kcwzbJU05wZz-cIJv0j--0" target="kcwzbJU05wZz-cIJv0j--2" edge="1">
                    <mxGeometry relative="1" as="geometry">
                        <Array as="points">
                            <mxPoint x="1050" y="510"/>
                            <mxPoint x="1050" y="140"/>
                        </Array>
                    </mxGeometry>
                </mxCell>
                <mxCell id="kcwzbJU05wZz-cIJv0j--0" value="P1" style="shadow=0;dashed=0;align=center;html=1;strokeWidth=1;shape=mxgraph.electrical.logic_gates.dual_inline_ic;labelNames=1,3,5,7,9,11,13,15,17,19,21,23,25,27,29,31,33,35,37,39,41,43,45,47,49,50,48,46,44,42,40,38,36,34,32,30,28,26,24,22,20,18,16,14,12,10,8,6,4,2;labelCount=50;pinLabelType=cust;" parent="Wk73bpi1QF1DkkTy3EzX-1" vertex="1">
                    <mxGeometry x="800" y="240" width="100" height="510" as="geometry"/>
                </mxCell>
                <mxCell id="kcwzbJU05wZz-cIJv0j--2" value="DISPLAY&lt;br&gt;PINS" style="shadow=0;dashed=0;align=center;html=1;strokeWidth=1;shape=mxgraph.electrical.logic_gates.dual_inline_ic;labelNames=12,10,8,6,4,2,1,3,5,7,9,11;pinLabelType=cust;labelCount=12;" parent="Wk73bpi1QF1DkkTy3EzX-1" vertex="1">
                    <mxGeometry x="770" y="30" width="160" height="130" as="geometry"/>
                </mxCell>
                <mxCell id="kcwzbJU05wZz-cIJv0j--5" style="edgeStyle=orthogonalEdgeStyle;html=1;exitX=0;exitY=1;exitDx=126;exitDy=0;exitPerimeter=0;entryX=0;entryY=0;entryDx=0;entryDy=490;entryPerimeter=0;rounded=0;strokeWidth=3;endArrow=none;endFill=0;" parent="Wk73bpi1QF1DkkTy3EzX-1" source="kcwzbJU05wZz-cIJv0j--4" target="kcwzbJU05wZz-cIJv0j--0" edge="1">
                    <mxGeometry relative="1" as="geometry"/>
                </mxCell>
                <mxCell id="ErJWRahHPDitt9mFPtBU-0" style="edgeStyle=orthogonalEdgeStyle;html=1;exitX=0;exitY=1;exitDx=14;exitDy=0;exitPerimeter=0;entryX=1;entryY=0;entryDx=0;entryDy=10;entryPerimeter=0;strokeColor=#FF0000;rounded=0;endArrow=none;endFill=0;strokeWidth=3;" parent="Wk73bpi1QF1DkkTy3EzX-1" source="kcwzbJU05wZz-cIJv0j--4" target="kcwzbJU05wZz-cIJv0j--0" edge="1">
                    <mxGeometry relative="1" as="geometry">
                        <Array as="points">
                            <mxPoint x="414" y="440"/>
                            <mxPoint x="590" y="440"/>
                            <mxPoint x="590" y="200"/>
                            <mxPoint x="910" y="200"/>
                            <mxPoint x="910" y="250"/>
                        </Array>
                    </mxGeometry>
                </mxCell>
                <mxCell id="ErJWRahHPDitt9mFPtBU-1" style="edgeStyle=orthogonalEdgeStyle;rounded=0;html=1;exitX=0;exitY=1;exitDx=42;exitDy=0;exitPerimeter=0;entryX=0;entryY=0;entryDx=0;entryDy=370;entryPerimeter=0;endArrow=none;endFill=0;strokeColor=#3333FF;strokeWidth=3;" parent="Wk73bpi1QF1DkkTy3EzX-1" source="kcwzbJU05wZz-cIJv0j--4" target="kcwzbJU05wZz-cIJv0j--0" edge="1">
                    <mxGeometry relative="1" as="geometry"/>
                </mxCell>
                <mxCell id="ErJWRahHPDitt9mFPtBU-2" style="edgeStyle=orthogonalEdgeStyle;rounded=0;html=1;exitX=0;exitY=1;exitDx=70;exitDy=0;exitPerimeter=0;entryX=0;entryY=0;entryDx=0;entryDy=390;entryPerimeter=0;endArrow=none;endFill=0;strokeColor=#00CC00;strokeWidth=3;" parent="Wk73bpi1QF1DkkTy3EzX-1" source="kcwzbJU05wZz-cIJv0j--4" target="kcwzbJU05wZz-cIJv0j--0" edge="1">
                    <mxGeometry relative="1" as="geometry"/>
                </mxCell>
                <mxCell id="kcwzbJU05wZz-cIJv0j--4" value="HY-SRF05" style="shadow=0;dashed=0;align=center;html=1;strokeWidth=1;shape=mxgraph.electrical.logic_gates.dual_inline_ic;labelNames=Vcc,TRIG,ECHO,OUT,GND;startPin=w;pinSpacing=28;labelCount=5;pinLabelType=cust;treeMoving=0;portConstraint=none;perimeter=rectanglePerimeter;snapToPoint=0;portConstraintRotation=0;" parent="Wk73bpi1QF1DkkTy3EzX-1" vertex="1">
                    <mxGeometry x="400" y="310" width="140" height="90" as="geometry"/>
                </mxCell>
            </root>
        </mxGraphModel>
    </diagram>
    <diagram id="Q5PKtIPmYla0WtoodmxI" name="fsm system">
        <mxGraphModel dx="890" dy="811" grid="1" gridSize="10" guides="1" tooltips="1" connect="1" arrows="1" fold="1" page="1" pageScale="1" pageWidth="1169" pageHeight="827" math="0" shadow="0">
            <root>
                <mxCell id="fCrUIj7ICpANIgIqwlMM-0"/>
                <mxCell id="fCrUIj7ICpANIgIqwlMM-1" parent="fCrUIj7ICpANIgIqwlMM-0"/>
                <mxCell id="I3N1WQbEvghAyw6arRP5-0" value="Start" style="ellipse;whiteSpace=wrap;html=1;" parent="fCrUIj7ICpANIgIqwlMM-1" vertex="1">
                    <mxGeometry x="190" y="110" width="70" height="70" as="geometry"/>
                </mxCell>
                <mxCell id="I3N1WQbEvghAyw6arRP5-11" value="" style="html=1;verticalAlign=bottom;endArrow=block;exitX=0.5;exitY=1;exitDx=0;exitDy=0;entryX=0.5;entryY=0;entryDx=0;entryDy=0;" parent="fCrUIj7ICpANIgIqwlMM-1" source="I3N1WQbEvghAyw6arRP5-0" target="QiX7VZfeqCpp36fPk9c1-0" edge="1">
                    <mxGeometry width="80" relative="1" as="geometry">
                        <mxPoint x="480" y="10" as="sourcePoint"/>
                        <mxPoint x="300.1400000000001" y="140.74" as="targetPoint"/>
                    </mxGeometry>
                </mxCell>
                <mxCell id="I3N1WQbEvghAyw6arRP5-35" value="&lt;font style=&quot;font-size: 35px&quot;&gt;Main&lt;br&gt;Finite State Machine&lt;/font&gt;" style="text;html=1;align=center;verticalAlign=middle;resizable=0;points=[];autosize=1;strokeColor=none;fillColor=none;" parent="fCrUIj7ICpANIgIqwlMM-1" vertex="1">
                    <mxGeometry x="60" y="20" width="330" height="50" as="geometry"/>
                </mxCell>
                <mxCell id="QiX7VZfeqCpp36fPk9c1-2" style="edgeStyle=none;html=1;exitX=0.5;exitY=1;exitDx=0;exitDy=0;entryX=0.5;entryY=0;entryDx=0;entryDy=0;" parent="fCrUIj7ICpANIgIqwlMM-1" source="QiX7VZfeqCpp36fPk9c1-0" target="QiX7VZfeqCpp36fPk9c1-1" edge="1">
                    <mxGeometry relative="1" as="geometry"/>
                </mxCell>
                <mxCell id="QiX7VZfeqCpp36fPk9c1-0" value="PORT&lt;br&gt;INIT" style="ellipse;whiteSpace=wrap;html=1;" parent="fCrUIj7ICpANIgIqwlMM-1" vertex="1">
                    <mxGeometry x="190" y="230" width="70" height="70" as="geometry"/>
                </mxCell>
                <mxCell id="QiX7VZfeqCpp36fPk9c1-4" style="edgeStyle=none;html=1;exitX=0.5;exitY=1;exitDx=0;exitDy=0;entryX=0.5;entryY=0;entryDx=0;entryDy=0;" parent="fCrUIj7ICpANIgIqwlMM-1" source="QiX7VZfeqCpp36fPk9c1-1" target="OgIxnC60-ptuwVd4k0WJ-2" edge="1">
                    <mxGeometry relative="1" as="geometry">
                        <mxPoint x="225" y="541" as="targetPoint"/>
                    </mxGeometry>
                </mxCell>
                <mxCell id="vt9f80a6ZNbZLHHa2RtJ-0" value="PIT2_TEN=1" style="edgeLabel;html=1;align=center;verticalAlign=middle;resizable=0;points=[];" parent="QiX7VZfeqCpp36fPk9c1-4" vertex="1" connectable="0">
                    <mxGeometry x="-0.32" y="-1" relative="1" as="geometry">
                        <mxPoint as="offset"/>
                    </mxGeometry>
                </mxCell>
                <mxCell id="QiX7VZfeqCpp36fPk9c1-1" value="PIT&lt;br&gt;INIT" style="ellipse;whiteSpace=wrap;html=1;" parent="fCrUIj7ICpANIgIqwlMM-1" vertex="1">
                    <mxGeometry x="190" y="370" width="70" height="70" as="geometry"/>
                </mxCell>
                <mxCell id="QiX7VZfeqCpp36fPk9c1-28" style="edgeStyle=orthogonalEdgeStyle;curved=1;html=1;exitX=0.5;exitY=1;exitDx=0;exitDy=0;entryX=0.5;entryY=0;entryDx=0;entryDy=0;fontSize=13;elbow=vertical;" parent="fCrUIj7ICpANIgIqwlMM-1" source="QiX7VZfeqCpp36fPk9c1-7" target="QiX7VZfeqCpp36fPk9c1-17" edge="1">
                    <mxGeometry relative="1" as="geometry"/>
                </mxCell>
                <mxCell id="QiX7VZfeqCpp36fPk9c1-29" value="10us" style="edgeLabel;html=1;align=center;verticalAlign=middle;resizable=0;points=[];fontSize=13;" parent="QiX7VZfeqCpp36fPk9c1-28" vertex="1" connectable="0">
                    <mxGeometry x="0.1818" y="-3" relative="1" as="geometry">
                        <mxPoint x="1" as="offset"/>
                    </mxGeometry>
                </mxCell>
                <mxCell id="QiX7VZfeqCpp36fPk9c1-7" value="START&lt;br&gt;TRIG" style="ellipse;whiteSpace=wrap;html=1;" parent="fCrUIj7ICpANIgIqwlMM-1" vertex="1">
                    <mxGeometry x="570" y="100" width="70" height="70" as="geometry"/>
                </mxCell>
                <mxCell id="QiX7VZfeqCpp36fPk9c1-8" value="&lt;font style=&quot;font-size: 35px&quot;&gt;Ultrasonic sensor (TRIG)&lt;br&gt;Finite State Machine&lt;/font&gt;" style="text;html=1;align=center;verticalAlign=middle;resizable=0;points=[];autosize=1;strokeColor=none;fillColor=none;" parent="fCrUIj7ICpANIgIqwlMM-1" vertex="1">
                    <mxGeometry x="605" y="20" width="400" height="50" as="geometry"/>
                </mxCell>
                <mxCell id="QiX7VZfeqCpp36fPk9c1-11" style="edgeStyle=orthogonalEdgeStyle;curved=1;html=1;exitX=1;exitY=0.5;exitDx=0;exitDy=0;entryX=0.5;entryY=1;entryDx=0;entryDy=0;elbow=vertical;" parent="fCrUIj7ICpANIgIqwlMM-1" source="QiX7VZfeqCpp36fPk9c1-9" target="QiX7VZfeqCpp36fPk9c1-10" edge="1">
                    <mxGeometry relative="1" as="geometry"/>
                </mxCell>
                <mxCell id="QiX7VZfeqCpp36fPk9c1-14" value="100ms" style="edgeLabel;html=1;align=center;verticalAlign=middle;resizable=0;points=[];fontSize=13;" parent="QiX7VZfeqCpp36fPk9c1-11" vertex="1" connectable="0">
                    <mxGeometry x="-0.2281" y="5" relative="1" as="geometry">
                        <mxPoint as="offset"/>
                    </mxGeometry>
                </mxCell>
                <mxCell id="QiX7VZfeqCpp36fPk9c1-9" value="START&lt;br&gt;PIT2" style="ellipse;whiteSpace=wrap;html=1;" parent="fCrUIj7ICpANIgIqwlMM-1" vertex="1">
                    <mxGeometry x="860" y="230" width="70" height="70" as="geometry"/>
                </mxCell>
                <mxCell id="QiX7VZfeqCpp36fPk9c1-12" style="edgeStyle=orthogonalEdgeStyle;curved=1;html=1;exitX=0;exitY=0.5;exitDx=0;exitDy=0;entryX=0.5;entryY=0;entryDx=0;entryDy=0;elbow=vertical;" parent="fCrUIj7ICpANIgIqwlMM-1" source="QiX7VZfeqCpp36fPk9c1-10" target="QiX7VZfeqCpp36fPk9c1-9" edge="1">
                    <mxGeometry relative="1" as="geometry"/>
                </mxCell>
                <mxCell id="QiX7VZfeqCpp36fPk9c1-16" value="PIT_TEN=1" style="edgeLabel;html=1;align=center;verticalAlign=middle;resizable=0;points=[];fontSize=13;" parent="QiX7VZfeqCpp36fPk9c1-12" vertex="1" connectable="0">
                    <mxGeometry x="0.6" y="19" relative="1" as="geometry">
                        <mxPoint x="6" as="offset"/>
                    </mxGeometry>
                </mxCell>
                <mxCell id="QiX7VZfeqCpp36fPk9c1-13" style="html=1;exitX=0;exitY=0.5;exitDx=0;exitDy=0;entryX=1;entryY=0.5;entryDx=0;entryDy=0;elbow=vertical;" parent="fCrUIj7ICpANIgIqwlMM-1" source="QiX7VZfeqCpp36fPk9c1-10" target="QiX7VZfeqCpp36fPk9c1-7" edge="1">
                    <mxGeometry relative="1" as="geometry"/>
                </mxCell>
                <mxCell id="QiX7VZfeqCpp36fPk9c1-22" value="PTA26_PDOR=1" style="edgeLabel;html=1;align=center;verticalAlign=middle;resizable=0;points=[];fontSize=13;" parent="QiX7VZfeqCpp36fPk9c1-13" vertex="1" connectable="0">
                    <mxGeometry x="0.2228" y="2" relative="1" as="geometry">
                        <mxPoint as="offset"/>
                    </mxGeometry>
                </mxCell>
                <mxCell id="QiX7VZfeqCpp36fPk9c1-10" value="PIT2&lt;br&gt;IRQ" style="ellipse;whiteSpace=wrap;html=1;" parent="fCrUIj7ICpANIgIqwlMM-1" vertex="1">
                    <mxGeometry x="1020" y="130" width="70" height="70" as="geometry"/>
                </mxCell>
                <mxCell id="QiX7VZfeqCpp36fPk9c1-26" style="edgeStyle=orthogonalEdgeStyle;curved=1;html=1;exitX=1;exitY=0.5;exitDx=0;exitDy=0;fontSize=13;elbow=vertical;" parent="fCrUIj7ICpANIgIqwlMM-1" source="QiX7VZfeqCpp36fPk9c1-17" target="QiX7VZfeqCpp36fPk9c1-24" edge="1">
                    <mxGeometry relative="1" as="geometry"/>
                </mxCell>
                <mxCell id="QiX7VZfeqCpp36fPk9c1-27" value="PTA26_PDOR=0" style="edgeLabel;html=1;align=center;verticalAlign=middle;resizable=0;points=[];fontSize=13;" parent="QiX7VZfeqCpp36fPk9c1-26" vertex="1" connectable="0">
                    <mxGeometry x="0.1439" y="3" relative="1" as="geometry">
                        <mxPoint y="-8" as="offset"/>
                    </mxGeometry>
                </mxCell>
                <mxCell id="QiX7VZfeqCpp36fPk9c1-17" value="PIT0&lt;br&gt;IRQ" style="ellipse;whiteSpace=wrap;html=1;" parent="fCrUIj7ICpANIgIqwlMM-1" vertex="1">
                    <mxGeometry x="610" y="240" width="70" height="70" as="geometry"/>
                </mxCell>
                <mxCell id="QiX7VZfeqCpp36fPk9c1-24" value="WAIT&lt;br&gt;PIT2" style="ellipse;whiteSpace=wrap;html=1;" parent="fCrUIj7ICpANIgIqwlMM-1" vertex="1">
                    <mxGeometry x="790" y="310" width="70" height="70" as="geometry"/>
                </mxCell>
                <mxCell id="QiX7VZfeqCpp36fPk9c1-30" value="&lt;font style=&quot;font-size: 35px&quot;&gt;Ultrasonic sensor (ECHO)&lt;br&gt;Finite State Machine&lt;/font&gt;" style="text;html=1;align=center;verticalAlign=middle;resizable=0;points=[];autosize=1;strokeColor=none;fillColor=none;" parent="fCrUIj7ICpANIgIqwlMM-1" vertex="1">
                    <mxGeometry x="605" y="410" width="420" height="50" as="geometry"/>
                </mxCell>
                <mxCell id="QiX7VZfeqCpp36fPk9c1-34" style="edgeStyle=orthogonalEdgeStyle;curved=1;html=1;exitX=1;exitY=0;exitDx=0;exitDy=0;entryX=0;entryY=0.5;entryDx=0;entryDy=0;fontSize=13;elbow=vertical;" parent="fCrUIj7ICpANIgIqwlMM-1" source="QiX7VZfeqCpp36fPk9c1-31" target="QiX7VZfeqCpp36fPk9c1-32" edge="1">
                    <mxGeometry relative="1" as="geometry"/>
                </mxCell>
                <mxCell id="QiX7VZfeqCpp36fPk9c1-36" value="RISING_EDGE/PIT1_TEN=1" style="edgeLabel;html=1;align=center;verticalAlign=middle;resizable=0;points=[];fontSize=13;" parent="QiX7VZfeqCpp36fPk9c1-34" vertex="1" connectable="0">
                    <mxGeometry x="0.3024" y="-11" relative="1" as="geometry">
                        <mxPoint x="-12" y="14" as="offset"/>
                    </mxGeometry>
                </mxCell>
                <mxCell id="QiX7VZfeqCpp36fPk9c1-35" style="edgeStyle=orthogonalEdgeStyle;curved=1;html=1;exitX=1;exitY=1;exitDx=0;exitDy=0;entryX=0;entryY=0.5;entryDx=0;entryDy=0;fontSize=13;elbow=vertical;" parent="fCrUIj7ICpANIgIqwlMM-1" source="QiX7VZfeqCpp36fPk9c1-31" target="QiX7VZfeqCpp36fPk9c1-33" edge="1">
                    <mxGeometry relative="1" as="geometry"/>
                </mxCell>
                <mxCell id="QiX7VZfeqCpp36fPk9c1-37" value="FALLING_EDGE" style="edgeLabel;html=1;align=center;verticalAlign=middle;resizable=0;points=[];fontSize=13;" parent="QiX7VZfeqCpp36fPk9c1-35" vertex="1" connectable="0">
                    <mxGeometry x="-0.0585" y="-13" relative="1" as="geometry">
                        <mxPoint x="6" y="12" as="offset"/>
                    </mxGeometry>
                </mxCell>
                <mxCell id="QiX7VZfeqCpp36fPk9c1-31" value="PORTA&lt;br&gt;IRG" style="ellipse;whiteSpace=wrap;html=1;" parent="fCrUIj7ICpANIgIqwlMM-1" vertex="1">
                    <mxGeometry x="585" y="590" width="70" height="70" as="geometry"/>
                </mxCell>
                <mxCell id="QiX7VZfeqCpp36fPk9c1-32" value="START&lt;br&gt;PIT1" style="ellipse;whiteSpace=wrap;html=1;" parent="fCrUIj7ICpANIgIqwlMM-1" vertex="1">
                    <mxGeometry x="900" y="510" width="70" height="70" as="geometry"/>
                </mxCell>
                <mxCell id="QiX7VZfeqCpp36fPk9c1-33" value="UPDATE&lt;br&gt;DISTANCE" style="ellipse;whiteSpace=wrap;html=1;" parent="fCrUIj7ICpANIgIqwlMM-1" vertex="1">
                    <mxGeometry x="900" y="680" width="70" height="70" as="geometry"/>
                </mxCell>
                <mxCell id="OgIxnC60-ptuwVd4k0WJ-0" style="edgeStyle=none;html=1;exitX=0.5;exitY=1;exitDx=0;exitDy=0;entryX=0.5;entryY=0;entryDx=0;entryDy=0;" parent="fCrUIj7ICpANIgIqwlMM-1" source="OgIxnC60-ptuwVd4k0WJ-2" target="OgIxnC60-ptuwVd4k0WJ-3" edge="1">
                    <mxGeometry relative="1" as="geometry"/>
                </mxCell>
                <mxCell id="OgIxnC60-ptuwVd4k0WJ-1" value="PIT2_TEN=1" style="edgeLabel;html=1;align=center;verticalAlign=middle;resizable=0;points=[];" parent="OgIxnC60-ptuwVd4k0WJ-0" vertex="1" connectable="0">
                    <mxGeometry x="-0.32" y="-1" relative="1" as="geometry">
                        <mxPoint as="offset"/>
                    </mxGeometry>
                </mxCell>
                <mxCell id="OgIxnC60-ptuwVd4k0WJ-2" value="PIT&lt;br&gt;INIT" style="ellipse;whiteSpace=wrap;html=1;" parent="fCrUIj7ICpANIgIqwlMM-1" vertex="1">
                    <mxGeometry x="190" y="520" width="70" height="70" as="geometry"/>
                </mxCell>
                <mxCell id="OgIxnC60-ptuwVd4k0WJ-3" value="DISPLAY&lt;br&gt;UPDATE" style="ellipse;whiteSpace=wrap;html=1;" parent="fCrUIj7ICpANIgIqwlMM-1" vertex="1">
                    <mxGeometry x="190" y="690" width="70" height="70" as="geometry"/>
                </mxCell>
                <mxCell id="OgIxnC60-ptuwVd4k0WJ-4" style="edgeStyle=orthogonalEdgeStyle;html=1;exitX=0.5;exitY=1;exitDx=0;exitDy=0;elbow=vertical;entryX=1;entryY=0.5;entryDx=0;entryDy=0;curved=1;" parent="fCrUIj7ICpANIgIqwlMM-1" source="OgIxnC60-ptuwVd4k0WJ-3" target="OgIxnC60-ptuwVd4k0WJ-3" edge="1">
                    <mxGeometry relative="1" as="geometry">
                        <mxPoint x="310" y="746" as="targetPoint"/>
                        <Array as="points">
                            <mxPoint x="300" y="831"/>
                        </Array>
                    </mxGeometry>
                </mxCell>
            </root>
        </mxGraphModel>
    </diagram>
    <diagram id="RbQfovTWDlcBjstpYOmP" name="Class diagram">
        <mxGraphModel dx="890" dy="811" grid="1" gridSize="10" guides="1" tooltips="1" connect="1" arrows="1" fold="1" page="1" pageScale="1" pageWidth="1169" pageHeight="827" math="0" shadow="0">
            <root>
                <mxCell id="U9qJtLw5xcD7s-tx1f1j-0"/>
                <mxCell id="U9qJtLw5xcD7s-tx1f1j-1" parent="U9qJtLw5xcD7s-tx1f1j-0"/>
                <mxCell id="8heBTegNDw7k-KR6CvN2-5" style="html=1;entryX=0.5;entryY=1;entryDx=0;entryDy=0;fontSize=18;elbow=vertical;strokeWidth=4;" parent="U9qJtLw5xcD7s-tx1f1j-1" source="8heBTegNDw7k-KR6CvN2-0" target="8heBTegNDw7k-KR6CvN2-4" edge="1">
                    <mxGeometry relative="1" as="geometry"/>
                </mxCell>
                <mxCell id="8heBTegNDw7k-KR6CvN2-7" style="edgeStyle=none;html=1;entryX=0.5;entryY=1;entryDx=0;entryDy=0;fontSize=18;strokeWidth=4;elbow=vertical;" parent="U9qJtLw5xcD7s-tx1f1j-1" source="8heBTegNDw7k-KR6CvN2-0" target="8heBTegNDw7k-KR6CvN2-6" edge="1">
                    <mxGeometry relative="1" as="geometry"/>
                </mxCell>
                <mxCell id="8heBTegNDw7k-KR6CvN2-0" value="&lt;p style=&quot;margin: 6px 0px 0px ; text-align: center ; font-size: 18px&quot;&gt;&lt;b style=&quot;font-size: 18px&quot;&gt;main.c&lt;/b&gt;&lt;/p&gt;&lt;hr style=&quot;font-size: 18px&quot;&gt;&lt;p style=&quot;margin: 0px 0px 0px 8px ; font-size: 18px&quot;&gt;+ DIGIT_0(c_pos) ... DIGIT_9(c_pos)&lt;/p&gt;&lt;p style=&quot;margin: 0px 0px 0px 8px ; font-size: 18px&quot;&gt;&lt;span style=&quot;font-size: 18px&quot;&gt;+ DIGIT_OFF(c_pos)&lt;/span&gt;&lt;/p&gt;&lt;p style=&quot;margin: 0px 0px 0px 8px ; font-size: 18px&quot;&gt;&lt;span style=&quot;font-size: 18px&quot;&gt;&lt;br style=&quot;font-size: 18px&quot;&gt;&lt;/span&gt;&lt;/p&gt;&lt;p style=&quot;margin: 0px 0px 0px 8px ; font-size: 18px&quot;&gt;&lt;span style=&quot;font-size: 18px&quot;&gt;+ distance: float&lt;/span&gt;&lt;/p&gt;&lt;p style=&quot;margin: 0px 0px 0px 8px ; font-size: 18px&quot;&gt;&lt;br style=&quot;font-size: 18px&quot;&gt;&lt;/p&gt;&lt;p style=&quot;margin: 0px 0px 0px 8px ; font-size: 18px&quot;&gt;+ PIT0_IRQHandler(void): void&lt;/p&gt;&lt;p style=&quot;margin: 0px 0px 0px 8px ; font-size: 18px&quot;&gt;+ PIT2_IRQHandler(void): void&lt;/p&gt;&lt;p style=&quot;margin: 0px 0px 0px 8px ; font-size: 18px&quot;&gt;+ PORTA_IRQHandler(void): void&lt;/p&gt;&lt;p style=&quot;margin: 0px 0px 0px 8px ; font-size: 18px&quot;&gt;&lt;br style=&quot;font-size: 18px&quot;&gt;&lt;/p&gt;&lt;p style=&quot;margin: 0px 0px 0px 8px ; font-size: 18px&quot;&gt;&lt;span style=&quot;font-size: 18px&quot;&gt;+ delay(long long): void&lt;/span&gt;&lt;/p&gt;&lt;p style=&quot;margin: 0px 0px 0px 8px ; font-size: 18px&quot;&gt;&lt;span style=&quot;font-size: 18px&quot;&gt;+ MCU_init(void): void&lt;/span&gt;&lt;/p&gt;&lt;p style=&quot;margin: 0px 0px 0px 8px ; font-size: 18px&quot;&gt;&lt;span style=&quot;font-size: 18px&quot;&gt;+ PORT_init(void): void&lt;/span&gt;&lt;/p&gt;&lt;p style=&quot;margin: 0px 0px 0px 8px ; font-size: 18px&quot;&gt;&lt;span style=&quot;font-size: 18px&quot;&gt;+ PIT_init(void): void&lt;/span&gt;&lt;/p&gt;&lt;p style=&quot;margin: 0px 0px 0px 8px ; font-size: 18px&quot;&gt;+ set_digit(char, unsigned char): void&lt;/p&gt;&lt;p style=&quot;margin: 0px 0px 0px 8px ; font-size: 18px&quot;&gt;+ update_display(void): void&lt;/p&gt;&lt;p style=&quot;margin: 0px 0px 0px 8px ; font-size: 18px&quot;&gt;+ start_ultrasonic(void): void&lt;/p&gt;&lt;p style=&quot;margin: 0px 0px 0px 8px ; font-size: 18px&quot;&gt;+ main(): void&lt;br style=&quot;font-size: 18px&quot;&gt;&lt;/p&gt;&lt;p style=&quot;margin: 0px 0px 0px 8px ; font-size: 18px&quot;&gt;&lt;br style=&quot;font-size: 18px&quot;&gt;&lt;/p&gt;&lt;p style=&quot;margin: 0px 0px 0px 8px ; font-size: 18px&quot;&gt;&lt;br style=&quot;font-size: 18px&quot;&gt;&lt;/p&gt;" style="align=left;overflow=fill;html=1;dropTarget=0;fontSize=18;strokeWidth=2;" parent="U9qJtLw5xcD7s-tx1f1j-1" vertex="1">
                    <mxGeometry x="300" y="264" width="360" height="426" as="geometry"/>
                </mxCell>
                <mxCell id="8heBTegNDw7k-KR6CvN2-1" value="" style="shape=component;jettyWidth=8;jettyHeight=4;fontSize=18;strokeWidth=2;" parent="8heBTegNDw7k-KR6CvN2-0" vertex="1">
                    <mxGeometry x="1" width="20" height="20" relative="1" as="geometry">
                        <mxPoint x="-24" y="4" as="offset"/>
                    </mxGeometry>
                </mxCell>
                <mxCell id="8heBTegNDw7k-KR6CvN2-4" value="&lt;p style=&quot;margin: 4px 0px 0px; text-align: center; font-size: 18px;&quot;&gt;&lt;br style=&quot;font-size: 18px;&quot;&gt;&lt;b style=&quot;font-size: 18px;&quot;&gt;MK60DZ10.h&lt;/b&gt;&lt;/p&gt;" style="verticalAlign=top;align=left;overflow=fill;fontSize=18;fontFamily=Helvetica;html=1;strokeWidth=2;" parent="U9qJtLw5xcD7s-tx1f1j-1" vertex="1">
                    <mxGeometry x="320" y="110" width="120" height="70" as="geometry"/>
                </mxCell>
                <mxCell id="8heBTegNDw7k-KR6CvN2-6" value="&lt;p style=&quot;margin: 4px 0px 0px; text-align: center; font-size: 18px;&quot;&gt;&lt;br style=&quot;font-size: 18px;&quot;&gt;&lt;b style=&quot;font-size: 18px;&quot;&gt;stdint.h&lt;/b&gt;&lt;/p&gt;" style="verticalAlign=top;align=left;overflow=fill;fontSize=18;fontFamily=Helvetica;html=1;strokeWidth=2;" parent="U9qJtLw5xcD7s-tx1f1j-1" vertex="1">
                    <mxGeometry x="530" y="110" width="110" height="70" as="geometry"/>
                </mxCell>
            </root>
        </mxGraphModel>
    </diagram>
</mxfile>